<svg width="73" height="75" viewBox="0 0 73 75" fill="none" xmlns="http://www.w3.org/2000/svg">
<g clip-path="url(#clip0)">
<path d="M59.7832 20.6668C59.7832 20.6668 58.4149 21.4562 58.8359 22.5614C58.8359 22.5614 60.2569 22.9824 60.8358 24.035C61.4147 25.0875 65.8881 28.8768 65.8881 28.8768L69.151 27.2453C69.151 27.2453 68.0159 25.73 64.4259 24.672C64.4259 24.672 62.3094 22.4035 61.5726 21.9825C60.8358 21.5615 59.7832 20.6668 59.7832 20.6668Z" fill="#CBCDDA"/>
<path opacity="0.05" d="M59.7832 20.6668C59.7832 20.6668 58.4149 21.4562 58.8359 22.5614C58.8359 22.5614 60.2569 22.9824 60.8358 24.035C61.4147 25.0875 65.8881 28.8768 65.8881 28.8768L69.151 27.2453C69.151 27.2453 68.0159 25.73 64.4259 24.672C64.4259 24.672 62.3094 22.4035 61.5726 21.9825C60.8358 21.5615 59.7832 20.6668 59.7832 20.6668Z" fill="black"/>
<path opacity="0.1" d="M12.4753 71.0457C11.7727 71.2193 11.0378 71.0166 10.3141 71.008C9.59043 70.9994 8.74615 71.3036 8.56879 72.0052C8.33057 72.9476 9.43224 73.6581 10.3755 73.8929C14.0366 74.8041 17.912 73.6214 21.6538 74.1038C23.2306 74.3071 24.764 74.8045 26.3494 74.9231C29.9782 75.1946 33.5238 73.4688 37.1576 73.6633C38.978 73.7608 40.7475 74.339 42.5682 74.4317C46.9245 74.6536 51.2223 72.0963 55.4869 73.0126C56.6911 73.2713 57.8217 73.7989 59.0149 74.1044C62.0315 74.8768 65.2072 74.1884 68.244 73.4996C68.847 73.3628 69.5739 73.0966 69.6482 72.4827C69.7302 71.8054 68.9525 71.3806 68.3054 71.1642C61.2299 68.7979 53.6546 67.5443 46.2744 68.638C44.595 68.8869 42.9203 69.2568 41.2226 69.2324C37.4652 69.1783 34.0125 67.2182 30.3236 66.5013C23.334 65.1428 16.3454 68.3122 9.92882 71.399" fill="#00B0FF"/>
<path d="M22.163 50.9654H20.0232V69.0562C20.0232 69.0562 33.8344 73.5302 47.2566 69.0562V50.9654H22.163Z" fill="#3F3D56"/>
<path d="M33.4454 53.1052C40.8583 53.1052 46.8676 52.1907 46.8676 51.0626C46.8676 49.9346 40.8583 49.0201 33.4454 49.0201C26.0325 49.0201 20.0232 49.9346 20.0232 51.0626C20.0232 52.1907 26.0325 53.1052 33.4454 53.1052Z" fill="#3F3D56"/>
<path opacity="0.1" d="M33.4454 53.1052C40.8583 53.1052 46.8676 52.1907 46.8676 51.0626C46.8676 49.9346 40.8583 49.0201 33.4454 49.0201C26.0325 49.0201 20.0232 49.9346 20.0232 51.0626C20.0232 52.1907 26.0325 53.1052 33.4454 53.1052Z" fill="black"/>
<path d="M49.0478 29.351C45.6618 41.8676 34.064 49.6195 34.064 49.6195C34.064 49.6195 27.9561 37.0779 31.342 24.5613C34.728 12.0447 46.3257 4.29285 46.3257 4.29285C46.3257 4.29285 52.4337 16.8344 49.0478 29.351Z" fill="#3F3D56"/>
<path d="M18.2448 29.351C21.6308 41.8676 33.2285 49.6195 33.2285 49.6195C33.2285 49.6195 39.3365 37.0779 35.9505 24.5613C32.5645 12.0447 20.9668 4.29285 20.9668 4.29285C20.9668 4.29285 14.8588 16.8344 18.2448 29.351Z" fill="#00B0FF"/>
<path d="M23.1441 26.5878C32.5389 35.5247 33.834 49.4143 33.834 49.4143C33.834 49.4143 19.897 48.8143 10.5022 39.8775C1.10741 30.9406 -0.187622 17.051 -0.187622 17.051C-0.187622 17.051 13.7493 17.6509 23.1441 26.5878Z" fill="#3F3D56"/>
<path d="M44.0723 26.6611C34.7812 35.7056 33.6463 49.6093 33.6463 49.6093C33.6463 49.6093 47.5754 48.8487 56.8666 39.8041C66.1578 30.7596 67.2926 16.856 67.2926 16.856C67.2926 16.856 53.3635 17.6165 44.0723 26.6611Z" fill="#3F3D56"/>
<path d="M33.6399 8.55908C36.0034 8.55908 37.9195 6.64306 37.9195 4.27954C37.9195 1.91601 36.0034 0 33.6399 0C31.2764 0 29.3604 1.91601 29.3604 4.27954C29.3604 6.64306 31.2764 8.55908 33.6399 8.55908Z" fill="#00B0FF"/>
<path d="M8.01291 34.5864C8.31635 35.6875 9.37059 36.3573 9.37059 36.3573C9.37059 36.3573 9.93285 35.242 9.62941 34.1409C9.32597 33.0398 8.27173 32.3699 8.27173 32.3699C8.27173 32.3699 7.70946 33.4853 8.01291 34.5864Z" fill="#00B0FF"/>
<path d="M13.6926 40.7185C13.3659 41.8129 13.9045 42.9399 13.9045 42.9399C13.9045 42.9399 14.9727 42.2924 15.2993 41.198C15.6259 40.1036 15.0873 38.9767 15.0873 38.9767C15.0873 38.9767 14.0192 39.6241 13.6926 40.7185Z" fill="#00B0FF"/>
<path d="M54.6598 47.7589C53.8581 48.5724 53.8054 49.8203 53.8054 49.8203C53.8054 49.8203 55.0525 49.7493 55.8541 48.9358C56.6558 48.1222 56.7085 46.8743 56.7085 46.8743C56.7085 46.8743 55.4614 46.9453 54.6598 47.7589Z" fill="#00B0FF"/>
<path d="M68.309 65.5587C68.309 65.5587 68.4668 67.8744 68.73 68.1375C68.9931 68.4006 66.3617 68.5585 66.3617 68.5585L66.7301 65.5587H68.309Z" fill="#FFB9B9"/>
<path opacity="0.05" d="M68.309 65.5587C68.309 65.5587 68.4668 67.8744 68.73 68.1375C68.9931 68.4006 66.3617 68.5585 66.3617 68.5585L66.7301 65.5587H68.309Z" fill="black"/>
<path d="M68.8878 67.3481C68.8878 67.3481 68.5194 67.3481 67.2037 68.0322C67.2037 68.0322 66.3091 67.8744 65.9407 66.6113C65.9407 66.6113 64.8355 68.5059 64.0987 68.6112C63.3619 68.7164 61.9409 68.8217 62.8882 70.0848C63.8355 71.3478 69.4141 70.7689 69.4141 70.7689C69.4141 70.7689 69.572 67.7165 68.8878 67.3481Z" fill="#CBCDDA"/>
<path opacity="0.05" d="M68.8878 67.3481C68.8878 67.3481 68.5194 67.3481 67.2037 68.0322C67.2037 68.0322 66.3091 67.8744 65.9407 66.6113C65.9407 66.6113 64.8355 68.5059 64.0987 68.6112C63.3619 68.7164 61.9409 68.8217 62.8882 70.0848C63.8355 71.3478 69.4141 70.7689 69.4141 70.7689C69.4141 70.7689 69.572 67.7165 68.8878 67.3481Z" fill="black"/>
<path d="M68.0984 69.1374L67.73 70.1374L65.3091 69.4532L65.447 68.4606L65.4802 68.2212L65.5723 67.5586C65.5723 67.5586 67.6248 67.0323 67.6248 67.2955C67.6525 67.5124 67.6975 67.7267 67.7595 67.9365C67.8437 68.2601 67.9495 68.6291 68.0206 68.8717C68.0669 69.0322 68.0984 69.1374 68.0984 69.1374Z" fill="#FFB9B9"/>
<path d="M66.7775 55.412C66.6117 55.6925 66.4238 56.2188 66.7727 56.8766C66.8761 57.0669 67.0032 57.2432 67.1511 57.4013C68.309 58.6644 68.6247 61.5063 68.6247 61.5063V66.085L67.8353 66.1455L66.5722 66.2429L64.6776 58.4539C64.6776 58.4539 63.5724 52.77 64.0987 51.7701C64.625 50.7702 65.0986 44.5074 65.0986 44.5074L65.5354 44.0548L66.5722 42.9812H69.572C69.812 43.1534 70.0113 43.3762 70.1557 43.6338C70.6593 44.4674 71.1114 46.201 69.7299 49.4018C67.5722 54.4015 66.9406 55.1909 66.9406 55.1909C66.878 55.2582 66.8233 55.3324 66.7775 55.412Z" fill="#4C4C78"/>
<path opacity="0.05" d="M66.7775 55.412C66.6117 55.6925 66.4238 56.2188 66.7727 56.8766C66.8761 57.0669 67.0032 57.2432 67.1511 57.4013C68.309 58.6644 68.6247 61.5063 68.6247 61.5063V66.085L67.8353 66.1455L66.5722 66.2429L64.6776 58.4539C64.6776 58.4539 63.5724 52.77 64.0987 51.7701C64.625 50.7702 65.0986 44.5074 65.0986 44.5074L65.5354 44.0548L66.5722 42.9812H69.572C69.812 43.1534 70.0113 43.3762 70.1557 43.6338C70.6593 44.4674 71.1114 46.201 69.7299 49.4018C67.5722 54.4015 66.9406 55.1909 66.9406 55.1909C66.878 55.2582 66.8233 55.3324 66.7775 55.412Z" fill="black"/>
<path opacity="0.1" d="M67.7595 67.9365L65.4802 68.2212L65.5723 67.5586C65.5723 67.5586 67.6248 67.0323 67.6248 67.2955C67.6525 67.5124 67.6975 67.7268 67.7595 67.9365Z" fill="black"/>
<path d="M66.6248 48.6651C66.6248 48.6651 66.7559 52.808 66.7775 55.412C66.7822 56.0009 66.7817 56.5114 66.7727 56.8767C66.7757 57.07 66.7615 57.2632 66.7301 57.454C66.5722 57.9276 66.888 58.9802 66.888 58.9802C68.2037 62.4537 67.8353 65.5061 67.8353 65.5061V67.8218L65.3091 68.1375C65.3091 68.1375 65.7301 67.8218 64.5723 64.7693C63.9071 63.0158 63.7629 61.2974 63.7608 60.1522C63.7546 59.5254 63.6293 58.9055 63.3913 58.3255C63.3185 58.1299 63.2731 57.9252 63.2566 57.7171C63.1514 56.6646 62.6777 55.3489 62.6777 55.3489C62.6777 55.3489 61.4146 51.6122 61.0988 48.8756C60.9529 47.5729 60.9775 46.2568 61.172 44.9606C61.2186 44.6311 61.282 44.3042 61.362 43.9811C61.362 43.9811 66.5069 40.7434 68.4494 42.9812C68.6364 43.2001 68.7846 43.4493 68.8878 43.718C68.9946 43.9835 69.0777 44.2579 69.1363 44.5379C69.741 47.5078 66.6248 48.6651 66.6248 48.6651Z" fill="#4C4C78"/>
<path d="M66.4669 25.6138C67.9493 25.6138 69.151 24.4122 69.151 22.9298C69.151 21.4474 67.9493 20.2458 66.4669 20.2458C64.9846 20.2458 63.7829 21.4474 63.7829 22.9298C63.7829 24.4122 64.9846 25.6138 66.4669 25.6138Z" fill="#FFB9B9"/>
<path d="M64.9934 24.6139C64.9934 24.6139 66.0986 27.719 64.9934 29.3504C63.8882 30.9819 68.5195 30.4556 68.5195 30.4556L70.3088 28.2979C70.3088 28.2979 68.2037 28.2979 68.0984 24.6139C67.9932 20.9299 64.9934 24.6139 64.9934 24.6139Z" fill="#FFB9B9"/>
<path opacity="0.1" d="M70.3089 44.2443C69.9273 44.3762 69.535 44.4745 69.1363 44.5379C68.4811 44.639 67.708 44.6427 67.2564 44.2443C66.9885 44.008 66.3286 43.979 65.5355 44.0548C63.8651 44.2148 61.6041 44.8379 61.1721 44.9605C61.2187 44.631 61.2821 44.3041 61.362 43.9811C61.362 43.9811 66.507 40.7434 68.4495 42.9812H69.5721C69.812 43.1534 70.0113 43.3761 70.1557 43.6338C70.2525 44.0527 70.3089 44.2443 70.3089 44.2443Z" fill="black"/>
<path opacity="0.1" d="M68.0984 69.1374L67.73 70.1374L65.3091 69.4532L65.447 68.4606C65.8628 69.3806 66.5722 69.5058 66.5722 69.5058C67.3374 69.108 67.7821 68.9417 68.0205 68.8717C68.0669 69.0322 68.0984 69.1374 68.0984 69.1374Z" fill="black"/>
<path d="M68.2563 68.8743C68.2563 68.8743 67.8879 68.8743 66.5722 69.5585C66.5722 69.5585 65.6775 69.4006 65.3091 68.1375C65.3091 68.1375 64.2039 70.0321 63.4671 70.1374C62.7304 70.2426 61.3094 70.3479 62.2567 71.611C63.204 72.874 68.7826 72.2951 68.7826 72.2951C68.7826 72.2951 68.9405 69.2427 68.2563 68.8743Z" fill="#CBCDDA"/>
<path d="M55.7704 23.4438C55.7704 23.4438 55.8732 21.3941 58.0274 21.5947C58.0877 21.6004 58.1456 21.6209 58.1961 21.6544C58.2466 21.6879 58.2881 21.7333 58.3168 21.7866C58.3455 21.8399 58.3607 21.8995 58.3609 21.9601C58.3611 22.0206 58.3463 22.0803 58.318 22.1338L57.8763 22.9652L55.7704 23.4438Z" fill="#FFB9B9"/>
<path d="M68.2037 28.9294C68.2037 28.9294 65.6249 28.5084 64.9408 27.9821C64.9408 27.9821 64.4145 28.982 63.4672 28.4557C62.5199 27.9295 60.3095 27.9821 60.3095 27.9821C60.3095 27.9821 58.4675 26.9822 58.0991 24.7191C58.0991 24.7191 57.7307 23.3508 57.8359 22.9824C57.8359 22.9824 56.4676 21.5614 55.7834 23.4561C56.0466 24.7718 56.2571 24.6665 56.2045 25.7191L57.0465 28.0347C57.0465 28.0347 57.0992 28.8241 58.6254 29.8767C60.1516 30.9293 61.8883 32.5607 61.8883 32.5607C61.8883 32.5607 60.9673 33.0607 61.3094 35.35C61.7275 38.1482 61.0989 42.1391 61.0989 42.1391V44.7179C61.0989 44.7179 66.3617 43.1917 67.2564 43.9811C68.1511 44.7705 70.3088 43.9811 70.3088 43.9811C70.3088 43.9811 70.0457 43.0864 69.6773 40.9286C69.3089 38.7709 69.7299 36.6658 69.7299 36.6658C69.7299 36.6658 71.0983 33.0344 71.7298 31.5608C72.3614 30.0872 71.2562 28.0873 70.151 27.3505C69.0458 26.6137 68.6341 27.0561 68.6341 27.0561C68.6341 27.0561 70.572 28.4557 68.2037 28.9294Z" fill="#CBCDDA"/>
<path opacity="0.1" d="M63.5642 22.2734C63.5633 22.3829 63.5818 22.4918 63.6188 22.5949C63.6802 22.7123 63.7641 22.8165 63.8656 22.9016C64.2597 23.2867 64.6054 23.7444 64.7441 24.2777C64.838 24.6388 64.833 25.0172 64.8273 25.3903C64.8044 26.9014 64.7411 28.5324 63.8078 29.721C63.4647 30.1579 63.0238 30.5053 62.6093 30.8749C62.5515 30.9174 62.5077 30.9761 62.4834 31.0436C62.472 31.1154 62.4858 31.189 62.5224 31.2519C62.7147 31.6519 63.1204 31.8972 63.5044 32.1199C63.6799 32.2216 63.8648 32.3262 64.0676 32.3328C64.5461 32.3483 64.8623 31.8428 65.2978 31.6439C65.9318 31.3545 66.6433 31.7574 67.2725 32.0569C67.7283 32.2739 68.2063 32.4406 68.6982 32.5541C69.3718 32.7095 70.1334 32.7477 70.7005 32.3524C71.0283 32.1214 71.2523 31.7709 71.3242 31.3764C71.3697 31.1192 71.3627 30.8207 71.5573 30.6465C71.6576 30.5568 71.7945 30.5196 71.903 30.4401C72.0713 30.3168 72.1514 30.1093 72.2231 29.9133L72.8713 28.1407C72.955 27.9534 72.9982 27.7506 72.9981 27.5454C72.967 27.1186 72.5733 26.8088 72.1781 26.6447C71.7829 26.4806 71.3458 26.3997 70.9982 26.15C70.4106 25.7277 70.2292 24.9392 70.1764 24.2175C70.1402 23.7218 70.1437 23.2241 70.187 22.729C70.2512 21.9947 70.3947 21.2129 70.0681 20.5522C69.7193 19.8466 68.9367 19.4863 68.2121 19.1789C67.9338 19.0609 67.6481 18.941 67.3461 18.9277C67.0265 18.9136 66.7154 19.0198 66.4132 19.1246C65.9329 19.2911 65.4457 19.5067 64.95 19.6197C64.6715 19.6831 64.3663 19.6356 64.0977 19.7364C63.1109 20.1065 63.5642 21.4789 63.5642 22.2734Z" fill="black"/>
<path d="M63.5642 22.1682C63.5633 22.2777 63.5818 22.3865 63.6188 22.4897C63.6802 22.607 63.7641 22.7112 63.8656 22.7963C64.2597 23.1815 64.6054 23.6392 64.7441 24.1725C64.838 24.5336 64.833 24.912 64.8273 25.285C64.8044 26.7961 64.7411 28.4272 63.8078 29.6158C63.4647 30.0526 63.0238 30.4 62.6093 30.7697C62.5515 30.8122 62.5077 30.8709 62.4834 30.9383C62.472 31.0102 62.4858 31.0838 62.5224 31.1466C62.7147 31.5467 63.1204 31.792 63.5044 32.0146C63.6799 32.1164 63.8648 32.2209 64.0676 32.2275C64.5461 32.243 64.8623 31.7375 65.2978 31.5387C65.9318 31.2492 66.6433 31.6521 67.2725 31.9517C67.7283 32.1686 68.2063 32.3354 68.6982 32.4489C69.3718 32.6043 70.1334 32.6424 70.7005 32.2471C71.0283 32.0162 71.2523 31.6657 71.3242 31.2711C71.3697 31.014 71.3627 30.7154 71.5573 30.5413C71.6576 30.4516 71.7945 30.4144 71.903 30.3349C72.0713 30.2115 72.1514 30.004 72.2231 29.8081L72.8713 28.0355C72.955 27.8482 72.9982 27.6453 72.9981 27.4402C72.967 27.0134 72.5733 26.7036 72.1781 26.5395C71.7829 26.3754 71.3458 26.2944 70.9982 26.0448C70.4106 25.6225 70.2292 24.834 70.1764 24.1123C70.1402 23.6166 70.1437 23.1188 70.187 22.6237C70.2512 21.8895 70.3947 21.1077 70.0681 20.447C69.7193 19.7414 68.9367 19.3811 68.2121 19.0737C67.9338 18.9556 67.6481 18.8358 67.3461 18.8225C67.0265 18.8084 66.7154 18.9146 66.4132 19.0194C65.9329 19.1859 65.4457 19.4015 64.95 19.5144C64.6715 19.5779 64.3663 19.5304 64.0977 19.6311C63.1109 20.0013 63.5642 21.3736 63.5642 22.1682Z" fill="#B96B6B"/>
<path opacity="0.05" d="M61.4421 36.5307C61.4421 36.5307 61.862 36.429 63.9671 36.1132C66.0723 35.7974 69.7562 36.5342 69.7562 36.5342" fill="black"/>
<path d="M3.59695 45.1846C3.90039 46.2856 4.95464 46.9555 4.95464 46.9555C4.95464 46.9555 5.5169 45.8402 5.21346 44.7391C4.91002 43.638 3.85577 42.9681 3.85577 42.9681C3.85577 42.9681 3.29351 44.0835 3.59695 45.1846Z" fill="#00B0FF"/>
</g>
<defs>
<clipPath id="clip0">
<rect width="73" height="74.9522" fill="white"/>
</clipPath>
</defs>
</svg>
